<mxfile host="app.diagrams.net" modified="2024-03-13T16:17:01.006Z" agent="Mozilla/5.0 (Windows NT 10.0; Win64; x64) AppleWebKit/537.36 (KHTML, like Gecko) Chrome/122.0.0.0 Safari/537.36" etag="NQTag0POb_c-lHS997ek" version="24.0.5" type="google">
  <diagram id="C5RBs43oDa-KdzZeNtuy" name="Page-1">
    <mxGraphModel grid="1" page="1" gridSize="10" guides="1" tooltips="1" connect="1" arrows="1" fold="1" pageScale="1" pageWidth="827" pageHeight="1169" math="0" shadow="0">
      <root>
        <mxCell id="WIyWlLk6GJQsqaUBKTNV-0" />
        <mxCell id="WIyWlLk6GJQsqaUBKTNV-1" parent="WIyWlLk6GJQsqaUBKTNV-0" />
        <mxCell id="_t37hUpZGbrj3unYy6Kt-7" value="Palindromo" style="swimlane;fontStyle=2;align=center;verticalAlign=top;childLayout=stackLayout;horizontal=1;startSize=26;horizontalStack=0;resizeParent=1;resizeLast=0;collapsible=1;marginBottom=0;rounded=0;shadow=0;strokeWidth=1;" vertex="1" parent="WIyWlLk6GJQsqaUBKTNV-1">
          <mxGeometry x="314" y="160" width="200" height="193" as="geometry">
            <mxRectangle x="230" y="140" width="160" height="26" as="alternateBounds" />
          </mxGeometry>
        </mxCell>
        <mxCell id="_t37hUpZGbrj3unYy6Kt-16" value="- cadena: str" style="text;html=1;align=center;verticalAlign=middle;resizable=0;points=[];autosize=1;strokeColor=none;fillColor=none;" vertex="1" parent="_t37hUpZGbrj3unYy6Kt-7">
          <mxGeometry y="26" width="200" height="30" as="geometry" />
        </mxCell>
        <mxCell id="_t37hUpZGbrj3unYy6Kt-9" value="" style="line;html=1;strokeWidth=1;align=left;verticalAlign=middle;spacingTop=-1;spacingLeft=3;spacingRight=3;rotatable=0;labelPosition=right;points=[];portConstraint=eastwest;" vertex="1" parent="_t37hUpZGbrj3unYy6Kt-7">
          <mxGeometry y="56" width="200" height="16" as="geometry" />
        </mxCell>
        <mxCell id="_t37hUpZGbrj3unYy6Kt-8" value="+ esPalindromo(cadena: str) : bool" style="text;align=left;verticalAlign=top;spacingLeft=4;spacingRight=4;overflow=hidden;rotatable=0;points=[[0,0.5],[1,0.5]];portConstraint=eastwest;shadow=1;" vertex="1" parent="_t37hUpZGbrj3unYy6Kt-7">
          <mxGeometry y="72" width="200" height="30" as="geometry" />
        </mxCell>
        <mxCell id="_t37hUpZGbrj3unYy6Kt-12" value="+ __init__( cadena: str)" style="text;html=1;align=center;verticalAlign=middle;resizable=0;points=[];autosize=1;strokeColor=none;fillColor=none;" vertex="1" parent="_t37hUpZGbrj3unYy6Kt-7">
          <mxGeometry y="102" width="200" height="30" as="geometry" />
        </mxCell>
        <mxCell id="_t37hUpZGbrj3unYy6Kt-15" value="+ test() : bool" style="text;html=1;align=center;verticalAlign=middle;resizable=0;points=[];autosize=1;strokeColor=none;fillColor=none;" vertex="1" parent="_t37hUpZGbrj3unYy6Kt-7">
          <mxGeometry y="132" width="200" height="30" as="geometry" />
        </mxCell>
        <mxCell id="_t37hUpZGbrj3unYy6Kt-14" value="+ __del__()" style="text;html=1;align=center;verticalAlign=middle;resizable=0;points=[];autosize=1;strokeColor=none;fillColor=none;" vertex="1" parent="_t37hUpZGbrj3unYy6Kt-7">
          <mxGeometry y="162" width="200" height="30" as="geometry" />
        </mxCell>
      </root>
    </mxGraphModel>
  </diagram>
</mxfile>
